<svg width="20" height="16" viewBox="0 0 20 16" fill="none" xmlns="http://www.w3.org/2000/svg">
<g id="Group">
<path id="Vector" fill-rule="evenodd" clip-rule="evenodd" d="M0 2.19112C0 2.04786 0 1.90464 0 1.76143C0.027871 1.62938 0.0480255 1.4952 0.0848388 1.36574C0.263595 0.736876 0.593054 0.234697 1.26908 0.067607C1.49314 0.0122735 1.73295 0.00278644 1.96559 0.00265026C7.32046 -0.000799575 12.6753 -7.24183e-05 18.0301 0.0004269C18.1471 0.0004269 18.2647 0.00079024 18.3811 0.0114121C18.7334 0.0436408 19.0438 0.175459 19.3219 0.397066C19.7022 0.700061 19.9035 1.10133 20 1.56611C20 1.72235 20 1.87859 20 2.03488C19.9237 2.43079 19.8293 2.8193 19.6274 3.17582C19.2211 3.8932 18.6506 4.45289 17.9803 4.9198C15.9947 6.30286 14.011 7.68865 12.0222 9.06722C11.6862 9.30018 11.3356 9.51425 10.9801 9.71647C10.3273 10.0879 9.66493 10.0818 9.01155 9.71275C8.72313 9.54979 8.43357 9.38543 8.16194 9.19659C6.09495 7.7596 4.02487 6.32692 1.97158 4.87055C1.02701 4.2006 0.253472 3.38108 0 2.19112Z" fill="white"/>
<path id="Vector_2" fill-rule="evenodd" clip-rule="evenodd" d="M0 5.08154C1.21343 6.26057 2.70835 7.05471 4.05837 8.04695C4.35655 8.2661 4.66762 8.46778 4.98365 8.68498C4.94811 8.72729 4.92287 8.76233 4.89268 8.79252C3.28678 10.3996 1.68043 12.0064 0.0738536 13.6129C0.0511573 13.6356 0.0246935 13.6546 0 13.6753C0 10.8108 0 7.94613 0 5.08154Z" fill="white"/>
<path id="Vector_3" fill-rule="evenodd" clip-rule="evenodd" d="M20.0003 13.6753C19.9433 13.6224 19.8846 13.5713 19.8297 13.5164C18.2737 11.9611 16.7181 10.4055 15.1626 8.84981C15.117 8.80419 15.0733 8.75666 15.0176 8.69847C15.0798 8.65135 15.1329 8.60754 15.1895 8.56873C16.3 7.80732 17.4203 7.05961 18.5176 6.27963C19.0345 5.91218 19.5074 5.48286 20.0003 5.08154C20.0003 7.94613 20.0003 10.8108 20.0003 13.6753Z" fill="white"/>
<path id="Vector_4" fill-rule="evenodd" clip-rule="evenodd" d="M13.707 9.61377C15.5994 11.5061 17.4769 13.3836 19.3655 15.2722C19.1018 15.5214 18.7804 15.655 18.4176 15.6968C18.3145 15.7087 18.2097 15.7095 18.1057 15.7096C12.7034 15.7102 7.30122 15.7091 1.89892 15.7118C1.42638 15.712 1.00001 15.6018 0.658203 15.2982C2.5444 13.412 4.42751 11.529 6.32151 9.63506C6.72628 9.92244 7.1551 10.2388 7.59618 10.5369C8.14357 10.9069 8.73417 11.1944 9.37838 11.3506C10.0496 11.5132 10.6888 11.3812 11.3185 11.121C12.0675 10.8116 12.7027 10.326 13.3554 9.86511C13.4718 9.78295 13.5874 9.69929 13.707 9.61377Z" fill="white"/>
</g>
</svg>
