<svg width="14" height="14" viewBox="0 0 14 14" fill="none" xmlns="http://www.w3.org/2000/svg">
<g id="Group">
<path id="Vector" fill-rule="evenodd" clip-rule="evenodd" d="M2.86059 0C3.13595 0.059613 3.40059 0.14389 3.62097 0.330139C3.652 0.356359 3.68461 0.381056 3.71327 0.409679C4.33755 1.03321 4.9644 1.65418 5.58424 2.28211C6.04467 2.74856 6.12462 3.38975 5.8003 3.92306C5.65411 4.16344 5.44763 4.33253 5.18272 4.42777C4.79977 4.56547 4.50407 4.79993 4.33941 5.18122C4.22969 5.4352 4.21484 5.69422 4.28612 5.96255C4.46574 6.63829 4.83177 7.20918 5.27924 7.73291C5.84888 8.39964 6.50412 8.96289 7.296 9.35311C7.57644 9.49135 7.86679 9.61921 8.18688 9.60476C8.79279 9.57739 9.21844 9.28406 9.43266 8.70688C9.53551 8.42969 9.70752 8.21116 9.96302 8.05963C10.4474 7.77229 11.0618 7.81126 11.4777 8.19178C11.878 8.55788 12.2541 8.95057 12.6378 9.33464C12.951 9.64824 13.2756 9.95242 13.5664 10.2859C13.9552 10.7317 13.9669 11.4287 13.6219 11.9111C13.5513 12.0099 13.4719 12.104 13.3866 12.1904C13.021 12.5607 12.6457 12.9214 12.2856 13.2969C11.9574 13.6391 11.5635 13.831 11.0953 13.8798C11.0742 13.882 11.0541 13.8945 11.0336 13.9022C10.8435 13.9022 10.6534 13.9022 10.4633 13.9022C10.2117 13.8535 9.95687 13.8171 9.70884 13.754C8.68557 13.4937 7.76144 13.0133 6.88118 12.4449C5.41989 11.5013 4.13716 10.3507 2.99182 9.0452C1.98483 7.89733 1.11341 6.65903 0.513013 5.24625C0.230646 4.58184 0.0222376 3.89619 0.00132908 3.16632C-0.0170758 2.52249 0.153508 1.95684 0.648275 1.50677C0.969144 1.21486 1.27147 0.901706 1.57045 0.586995C1.84744 0.295494 2.14801 0.0550118 2.56191 0C2.66145 0 2.76105 0 2.86059 0Z" fill="white"/>
</g>
</svg>
